<svg width="80" height="77" viewBox="0 0 80 77" fill="none" xmlns="http://www.w3.org/2000/svg">
<path d="M59.4899 0.0418908C59.9613 0.0396855 59.9613 0.0396855 60.4422 0.0374357C61.1013 0.0350178 61.7604 0.0333209 62.4195 0.0323194C63.4206 0.0298048 64.4216 0.0217797 65.4227 0.0136802C66.0674 0.0119965 66.712 0.0106421 67.3567 0.00965016C67.6517 0.00646561 67.9468 0.00328106 68.2509 0C71.2864 0.00829459 74.1616 0.478028 76.4153 2.63626C78.3605 4.73149 78.7661 6.85616 78.8958 9.6345C78.9066 9.86078 78.9175 10.0871 78.9286 10.3202C79.0308 12.6305 79.0498 14.939 79.0443 17.2513C79.0429 17.942 79.0443 18.6326 79.0459 19.3233C79.0511 29.8461 79.0511 29.8461 75.6485 33.3989C74.3237 34.67 73.0253 35.4102 71.2729 35.9459C71.1206 35.9961 70.9683 36.0463 70.8114 36.098C69.9317 36.2612 69.053 36.2412 68.1617 36.2361C67.9575 36.236 67.7534 36.2358 67.543 36.2357C66.2764 36.2285 65.0205 36.1732 63.7572 36.0844C57.529 35.6568 51.2599 37.0099 46.2703 40.9432C41.8635 44.8091 38.9521 49.9367 38.2585 55.8062C38.1592 57.5663 38.2183 59.3323 38.2585 61.0936C38.4567 69.7799 38.4567 69.7799 35.517 73.0368C32.229 76.1035 27.3348 75.9638 23.1346 75.9677C22.8049 75.9685 22.4752 75.9694 22.1355 75.9703C21.4412 75.9718 20.7469 75.9723 20.0526 75.9721C19.3496 75.9721 18.6466 75.9739 17.9436 75.9774C6.18271 76.0355 6.18271 76.0355 2.66478 72.8292C-0.499417 69.5076 0.0306863 64.5809 0.0371627 60.3037C0.0373186 60.1119 0.0374744 59.92 0.037635 59.7224C0.0445178 56.5864 0.159426 53.4986 0.601374 50.3897C0.633251 50.1586 0.665127 49.9274 0.69797 49.6893C2.75729 35.2565 10.0187 22.0628 21.4933 12.9906C21.6965 12.8217 21.8996 12.6528 22.1089 12.4787C32.5431 3.85544 46.1193 0.0916458 59.4899 0.0418908Z" fill="#27344C"/>
<path d="M72.8195 43.9416C76.4499 47.0083 78.9341 51.0324 79.5256 55.8062C79.8421 61.0205 78.9983 66.08 75.6567 70.25C75.4971 70.4518 75.3375 70.6537 75.1731 70.8616C72.3607 74.224 68.1404 76.3451 63.7792 76.7759C62.9864 76.8105 62.1997 76.819 61.4063 76.811C60.9847 76.8075 60.9847 76.8075 60.5546 76.804C55.0705 76.6871 50.4908 74.5649 46.6582 70.6399C43.0979 66.5941 42.0755 61.7619 42.3298 56.4951C42.6346 52.6444 44.2256 49.1473 46.7691 46.263C46.9383 46.0695 47.1075 45.876 47.2819 45.6766C53.7597 38.7369 65.3909 38.2071 72.8195 43.9416Z" fill="#27344C"/>
</svg>
